<!-- Generated by IcoMoon.io -->
<svg version="1.1" xmlns="http://www.w3.org/2000/svg" width="1840" height="1024" viewBox="0 0 1840 1024">
<title></title>
<g id="icomoon-ignore">
</g>
<path d="M146.054 599.034c22.302 0 40.783-4.902 55.417-14.705 14.641-9.821 21.963-24.087 21.963-42.808-1.126-25.261-19.933-44.196-56.423-56.818l-19.607-8.129c-4.276-1.361-7.329-2.696-9.122-4.057-1.635-1.116-2.696-2.973-2.696-5.077 0-0.001 0-0.001 0-0.002v0c0-5.637 3.717-8.438 11.151-8.438 9.231 0 16.094 4.725 20.6 14.202l50.347-14.215c-12.155-30.227-35.591-45.323-70.285-45.323-20.727 0-37.96 5.415-51.695 16.244-13.738 10.807-20.615 24.917-20.615 42.264 0 5.415 0.794 10.429 2.369 15.055s3.949 8.683 7.090 12.172c3.163 3.5 6.196 6.536 9.122 9.132 2.928 2.591 6.645 5.024 11.169 7.271 4.493 2.264 7.924 3.898 10.293 4.902 2.369 1.021 5.583 2.206 9.627 3.554l5.742 2.042 20.288 7.434c4.942 1.815 8.169 3.326 9.627 4.562 1.339 1.126 2.184 2.806 2.184 4.68 0 0.079-0.001 0.155-0.002 0.232v-0.012c0 5.869-5.497 8.81-16.543 8.81-16.216 0-25.91-7.217-29.060-21.649l-50.691 11.506c6.308 38.128 32.895 57.186 79.747 57.186zM304.482 599.034c22.302 0 38.736-8.578 49.326-25.706v21.989h69.603v-177.943h-69.603v97.433c0 20.069-6.88 30.087-20.615 30.087-13.97 0-20.954-10.025-20.954-30.087v-97.433h-69.603v104.201c0 51.644 20.615 77.47 61.842 77.47zM523.736 595.317v-97.42c0-20.084 6.862-30.122 20.6-30.122 13.97 0 20.968 10.031 20.968 30.122v97.42h69.591v-104.184c0-51.644-20.6-77.47-61.83-77.47-22.302 0-38.751 8.578-49.326 25.706v-21.989h-69.617v177.943h69.617zM733.186 595.317v-97.42c0-20.084 6.862-30.122 20.615-30.122 13.952 0 20.937 10.031 20.937 30.122v97.42h69.617v-104.184c0-51.644-20.615-77.47-61.842-77.47-22.302 0-38.751 8.578-49.326 25.706v-21.989h-69.617v177.943h69.617zM950.747 671.088l112.86-253.714h-72.667l-34.475 91.007-30.745-91.007h-76.030l73.998 160.692-41.215 93.022h68.269zM1136.875 599.034c22.302 0 40.783-4.902 55.417-14.705 14.651-9.821 21.976-24.087 21.976-42.808-1.126-25.261-19.951-44.196-56.438-56.818l-19.607-8.129c-4.276-1.361-7.312-2.696-9.122-4.057-1.635-1.116-2.696-2.973-2.696-5.077 0-0.001 0-0.001 0-0.002v0c0-5.637 3.717-8.438 11.151-8.438 9.231 0 16.107 4.725 20.615 14.202l50.347-14.215c-12.172-30.227-35.591-45.323-70.285-45.323-20.727 0-37.96 5.415-51.695 16.244-13.748 10.824-20.615 24.917-20.615 42.277 0 5.415 0.794 10.429 2.356 15.055 1.58 4.629 3.949 8.683 7.107 12.172 3.145 3.5 6.196 6.536 9.122 9.132 2.928 2.591 6.645 5.024 11.151 7.271 4.493 2.264 7.942 3.898 10.311 4.902 2.356 1.021 5.583 2.206 9.627 3.554l5.742 2.042 20.273 7.434c4.96 1.815 8.169 3.326 9.627 4.562 1.347 1.126 2.194 2.811 2.194 4.695 0 0.074-0.001 0.145-0.002 0.222v-0.012c0 5.869-5.514 8.81-16.556 8.81-16.199 0-25.897-7.217-29.060-21.649l-50.691 11.491c6.314 38.128 32.895 57.186 79.747 57.186zM1270.309 406.55c12.39 0 21.963-2.928 28.729-8.8 6.74-5.859 10.13-13.303 10.13-22.326 0-9.231-3.268-16.747-9.803-22.479-6.536-5.777-16.216-8.632-29.060-8.632s-22.53 2.877-29.070 8.632c-6.536 5.742-9.803 13.252-9.803 22.494 0 9.014 3.39 16.461 10.143 22.326 6.763 5.859 16.339 8.782 28.729 8.782zM1305.108 595.317v-177.943h-69.627v177.943h69.617zM1410.493 599.034c23.65 0 40.538-8.578 50.674-25.706v21.989h69.603v-244.575h-69.603v88.965c-10.143-17.36-27.028-26.043-50.691-26.043-23.868 0-43.76 8.741-59.637 26.224-15.872 17.465-23.827 39.622-23.827 66.471 0 26.819 7.952 48.989 23.827 66.471 15.872 17.465 35.769 26.211 59.637 26.211zM1429.42 545.933c-9.926 0-17.868-3.73-23.827-11.169-5.977-7.452-8.963-16.924-8.963-28.412 0-11.506 2.928-20.968 8.782-28.412 6.086-7.452 14.075-11.169 23.995-11.169s17.85 3.717 23.827 11.169c5.964 7.434 8.945 16.911 8.945 28.412 0 11.491-2.982 20.968-8.945 28.412-5.977 7.434-13.916 11.169-23.827 11.169zM1656.775 599.034c35.356 0 62.959-10.266 82.78-30.771l-28.729-38.573c-14.187 11.506-30.186 17.255-47.978 17.255-13.503 0-24.491-3.046-32.946-9.122-8.438-6.104-12.663-11.968-12.663-17.605h130.764c1.126-4.057 1.688-9.354 1.688-15.889 0-27.963-9.173-50.066-27.531-66.308-18.368-16.244-41.841-24.358-70.461-24.358-30.635 0-54.845 9.132-72.639 27.408-17.792 18.259-26.701 40.252-26.701 65.951 0 26.387 9.395 48.322 28.208 65.804 18.813 17.465 44.21 26.211 76.208 26.211zM1686.837 488.081h-69.603c0.449-8.346 4.057-14.705 10.807-19.116 6.753-4.394 14.759-6.594 23.995-6.594s17.237 2.247 23.995 6.763c6.763 4.511 10.362 10.824 10.807 18.94z"></path>
</svg>
